G04*
G04 #@! TF.GenerationSoftware,Altium Limited,Altium Designer,21.5.1 (32)*
G04*
G04 Layer_Physical_Order=1*
G04 Layer_Color=255*
%FSLAX25Y25*%
%MOIN*%
G70*
G04*
G04 #@! TF.SameCoordinates,74DEDB58-8795-4420-B99F-0158118346DD*
G04*
G04*
G04 #@! TF.FilePolarity,Positive*
G04*
G01*
G75*
%ADD11R,0.06496X0.03740*%
%ADD12R,0.09843X0.05512*%
G36*
X198425Y233465D02*
X233465D01*
X235827Y231102D01*
X287795D01*
X290158Y233465D01*
X325197D01*
Y238976D01*
X289370D01*
X285433Y235039D01*
X238189D01*
X234252Y238976D01*
X198425D01*
Y233465D01*
D02*
G37*
G36*
Y251181D02*
Y244882D01*
X233858D01*
X235827Y242913D01*
X287402D01*
X289370Y244882D01*
X325197D01*
Y251181D01*
X289370D01*
X287008Y253543D01*
X236221D01*
X233858Y251181D01*
X198425D01*
D02*
G37*
G36*
X198819Y257087D02*
X234252Y257087D01*
X238583Y261417D01*
X284646D01*
X288976Y257087D01*
X325197D01*
Y262598D01*
X289764D01*
X287008Y265354D01*
X236221D01*
X233465Y262598D01*
X198819D01*
Y257087D01*
D02*
G37*
D11*
X247244Y232972D02*
D03*
Y244980D02*
D03*
X257087Y232972D02*
D03*
Y244980D02*
D03*
X266929Y232972D02*
D03*
Y244980D02*
D03*
X276772Y232972D02*
D03*
Y244980D02*
D03*
X257087Y263583D02*
D03*
Y251575D02*
D03*
X266929Y263484D02*
D03*
Y251476D02*
D03*
X276772Y263484D02*
D03*
Y251476D02*
D03*
X247244Y263484D02*
D03*
Y251476D02*
D03*
D12*
X295768Y259842D02*
D03*
X320177D02*
D03*
X295768Y248031D02*
D03*
X320177D02*
D03*
X295768Y236221D02*
D03*
X320177D02*
D03*
X227854D02*
D03*
X203445D02*
D03*
X227854Y248031D02*
D03*
X203445D02*
D03*
X227854Y259842D02*
D03*
X203445D02*
D03*
M02*
